Coordinates
version=1
nRows=6
nColumns=44
inDegrees=no
Units are S.I. units (second, meters, Newtons, ...)
If the header above contains a line with 'inDegrees', this indicates whether rotational values are in degrees (yes) or radians (no).
endheader
time	pelvis_tilt	pelvis_list	pelvis_rotation	pelvis_tx	pelvis_ty	pelvis_tz	hip_flexion_r	hip_adduction_r	hip_rotation_r	knee_angle_r	knee_frontal_r	knee_adduction_r	knee_angle_r_beta	ankle_angle_r	subtalar_angle_r	mtp_angle_r	hip_flexion_l	hip_adduction_l	hip_rotation_l	knee_angle_l	knee_frontal_l	knee_adduction_l	knee_angle_l_beta	ankle_angle_l	subtalar_angle_l	mtp_angle_l	lumbar_extension	lumbar_bending	lumbar_rotation	arm_flex_r	arm_add_r	arm_rot_r	elbow_flex_r	pro_sup_r	wrist_flex_r	wrist_dev_r	arm_flex_l	arm_add_l	arm_rot_l	elbow_flex_l	pro_sup_l	wrist_flex_l	wrist_dev_l
    0.00000000000000	   -0.10295129780843	    0.01003398557776	   -0.04306113053877	    0.83015457041983	    0.97067665228405	    0.48200675775074	    0.58243675536671	   -0.02078582897447	    0.05760864234879	    0.75923366935311	    0.00000000000000	    0.00000000000000	    0.75923366935311	    0.04613349230031	   -0.09213296403056	   -0.22828387328928	    0.06452026293827	    0.03150750703297	    0.09229543460805	    0.21583993380504	    0.00000000000000	    0.00000000000000	    0.21583993380504	    0.17485416912214	   -0.10977486500990	   -0.18980362101324	   -0.07290568839593	    0.03505794054666	    0.00001943059206	   -0.17068669257704	   -0.23659653753711	   -0.08764867914436	    0.50177586841996	    1.57079632696943	    0.00000000000000	    0.00000000000000	    0.00834815653601	   -0.39113485726738	    0.03936107838912	    1.00448071160451	    1.57079632696943	    0.00000000000000	    0.00000000000000
    0.00500000000000	   -0.10442083780973	    0.01274483401861	   -0.04217832768971	    0.82975747742697	    0.97003533640209	    0.48219024547704	    0.58054294697287	   -0.02351331686711	    0.06302318029892	    0.72065012824034	    0.00000000000000	    0.00000000000000	    0.72065012824034	    0.04720598473732	   -0.08869913602081	   -0.22729588529862	    0.05898244441290	    0.03414174691328	    0.09265781022725	    0.21494192881540	    0.00000000000000	    0.00000000000000	    0.21494192881540	    0.17556967501944	   -0.10868933710682	   -0.19542516797018	   -0.07055460485964	    0.03164222484563	    0.00002189494251	   -0.17487768738672	   -0.23473318084666	   -0.08966390387276	    0.50071999105715	    1.57079632696943	    0.00000000000000	    0.00000000000000	    0.01026548090628	   -0.39480043421270	    0.03969011946099	    1.01628988727011	    1.57079632696943	    0.00000000000000	    0.00000000000000
    0.01000000000000	   -0.10590758180082	    0.01551408696738	   -0.04128637075833	    0.82935727464407	    0.96937966426588	    0.48237817691350	    0.57862512019919	   -0.02632475930239	    0.06849535931861	    0.68168743182083	    0.00000000000000	    0.00000000000000	    0.68168743182083	    0.04845739500816	   -0.08516145953203	   -0.22625407364365	    0.05341626547144	    0.03682853575395	    0.09302375577454	    0.21412035175149	    0.00000000000000	    0.00000000000000	    0.21412035175149	    0.17628580242855	   -0.10759650042849	   -0.20102231137231	   -0.06817407302833	    0.02815055929156	    0.00002440185011	   -0.17908026723682	   -0.23285802075496	   -0.09168083050664	    0.49967493663934	    1.57079632696943	    0.00000000000000	    0.00000000000000	    0.01218884539599	   -0.39850092730540	    0.04000586490754	    1.02819834939227	    1.57079632696943	    0.00000000000000	    0.00000000000000
    0.01500000000000	   -0.10740085755085	    0.01832327037620	   -0.04038910972229	    0.82895709238986	    0.96871104616159	    0.48257047520678	    0.57667817949642	   -0.02920444252319	    0.07399461241117	    0.64257907235920	    0.00000000000000	    0.00000000000000	    0.64257907235920	    0.04990073474076	   -0.08152967814874	   -0.22517289765177	    0.04785249009187	    0.03954808287822	    0.09338739728944	    0.21341037961154	    0.00000000000000	    0.00000000000000	    0.21341037961154	    0.17700647435081	   -0.10649184910111	   -0.20656554997079	   -0.06578146029023	    0.02460529907802	    0.00002693687321	   -0.18325935339948	   -0.23098647327513	   -0.09368444528451	    0.49865047200064	    1.57079632696943	    0.00000000000000	    0.00000000000000	    0.01409856891513	   -0.40220963566208	    0.04030300530961	    1.04014036820463	    1.57079632696943	    0.00000000000000	    0.00000000000000
    0.02000000000000	   -0.10889010158391	    0.02115261176014	   -0.03949017461257	    0.82855991805135	    0.96803078378013	    0.48276715118580	    0.57469657499715	   -0.03213464814468	    0.07948676700757	    0.60355569165193	    0.00000000000000	    0.00000000000000	    0.60355569165193	    0.05154702145216	   -0.07781035882486	   -0.22407060245973	    0.04231962716439	    0.04227920029505	    0.09374214783169	    0.21284792479039	    0.00000000000000	    0.00000000000000	    0.21284792479039	    0.17773730514127	   -0.10536857327726	   -0.21202977793684	   -0.06339412310566	    0.02103042993469	    0.00002948328456	   -0.18738021143955	   -0.22913410062863	   -0.09566016895181	    0.49765586603959	    1.57079632696943	    0.00000000000000	    0.00000000000000	    0.01597548527446	   -0.40589965362998	    0.04057594569782	    1.05205261786229	    1.57079632696943	    0.00000000000000	    0.00000000000000
    0.02500000000000	   -0.11036499327651	    0.02398109069541	   -0.03859296444370	    0.82816854186242	    0.96734009508538	    0.48296829635472	    0.57267471264507	   -0.03509554217435	    0.08493389524993	    0.56484293641127	    0.00000000000000	    0.00000000000000	    0.56484293641127	    0.05340443477541	   -0.07400682171875	   -0.22296932444379	    0.03684346445731	    0.04499937358802	    0.09408066324926	    0.21246885953246	    0.00000000000000	    0.00000000000000	    0.21246885953246	    0.17848551370828	   -0.10421758008095	   -0.21739524407377	   -0.06102918322546	    0.01745153138118	    0.00003202203765	   -0.19140897245859	   -0.22731642574795	   -0.09759405603865	    0.49669970502839	    1.57079632696943	    0.00000000000000	    0.00000000000000	    0.01780132181730	   -0.40954415285270	    0.04081884963078	    1.06387482574330	    1.57079632696943	    0.00000000000000	    0.00000000000000
